# File created by Blade
# Date/Time:  Tue Apr 07 20:41:02 2015
# Frame Rate: 120.000 fps
#------------------------------------------------------
:FULLY-SPECIFIED
:DEGREES
1366
root 4.978066 34.410955 -3.620472 25.779987 -22.542434 -55.897831
Spine -2.876625 25.450422 34.898639
Head 7.835490 0.655542 20.370932
LeftShoulder -19.612372 21.185166 37.867813
LeftArm 100.762038 -78.801184 -73.081727
LeftForeArm 20.510109 -0.000000 27.755165
LeftHand 12.039520 -0.000000 21.929367
LeftHandThumb1 -26.253704 0.000000 33.147579
RightShoulder -6.972373 35.439189 -30.113792
RightArm 61.040158 73.701433 97.295306
RightForeArm 39.248305 -0.000000 59.220770
RightHand 1.608483 0.000000 28.990421
RightHandThumb1 -24.326973 -0.000000 -32.862282
LeftUpLeg -5.148520 -5.309403 47.605972
LeftLeg 20.805464 -0.000000 -0.000000
LeftFoot -17.997768 33.711595 -14.891350
LeftToeBase -10.374543 -0.000000 0.000000
RightUpLeg -138.396466 -54.166965 26.253502
RightLeg -13.011614 -0.000000 0.000000
RightFoot 36.937227 -24.157464 17.096158
RightToeBase 23.140040 -0.000000 -0.000000
1367
root 4.969819 34.403058 -3.595510 25.979976 -22.721148 -55.980390
Spine -2.993467 25.462673 34.859238
Head 8.040753 0.822797 20.728558
LeftShoulder -19.630043 21.128444 37.920123
LeftArm 101.735259 -78.807653 -73.952517
LeftForeArm 20.419971 0.000000 27.707696
LeftHand 12.009421 0.000000 21.810531
LeftHandThumb1 -26.253704 0.000000 33.147579
RightShoulder -6.954074 35.388022 -30.091972
RightArm 61.270781 73.656425 97.536229
RightForeArm 38.988171 0.000000 59.256879
RightHand 1.641726 0.000000 28.398212
RightHandThumb1 -24.326973 -0.000000 -32.862282
LeftUpLeg -5.086247 -5.209959 47.564906
LeftLeg 20.879243 -0.000000 -0.000000
LeftFoot -18.093842 33.813544 -14.833932
LeftToeBase -10.179012 -0.000000 0.000000
RightUpLeg -138.460637 -54.224553 26.275399
RightLeg -13.051093 -0.000000 0.000000
RightFoot 36.908385 -24.230135 17.316074
RightToeBase 23.130919 -0.000000 -0.000000
1368
root 4.963106 34.394242 -3.574746 26.187791 -22.917168 -56.078390
Spine -3.066240 25.486253 34.839992
Head 8.208830 1.055930 21.083242
LeftShoulder -19.683194 21.128206 37.973506
LeftArm 103.023122 -78.782046 -75.213380
LeftForeArm 20.358412 0.000000 27.714886
LeftHand 11.968035 -0.000000 21.877594
LeftHandThumb1 -26.253704 0.000000 33.147579
RightShoulder -6.984256 35.427215 -30.108539
RightArm 61.100362 73.547873 97.432907
RightForeArm 39.056162 -0.000000 59.324189
RightHand 1.616518 -0.000000 29.110541
RightHandThumb1 -24.326973 -0.000000 -32.862282
LeftUpLeg -5.017233 -5.053065 47.534545
LeftLeg 20.961241 -0.000000 -0.000000
LeftFoot -18.260693 33.823811 -14.971692
LeftToeBase -10.667360 -0.000000 0.000000
RightUpLeg -138.436188 -54.235346 26.223029
RightLeg -13.116325 -0.000000 0.000000
RightFoot 36.925153 -24.266506 17.170757
RightToeBase 23.162534 -0.000000 -0.000000
1369
root 4.957035 34.384144 -3.551971 26.353244 -23.093745 -56.131672
Spine -3.123524 25.518805 34.799091
Head 8.311787 1.279227 21.371743
LeftShoulder -19.689471 21.025475 38.035194
LeftArm 103.780201 -78.752492 -75.924419
LeftForeArm 20.364905 0.000000 27.728544
LeftHand 11.908545 -0.000000 21.910447
LeftHandThumb1 -26.253704 0.000000 33.147579
RightShoulder -7.174625 35.455073 -30.239417
RightArm 60.591862 73.363674 97.026303
RightForeArm 39.008348 -0.000000 59.322946
RightHand 1.857198 0.000000 28.314652
RightHandThumb1 -24.326973 -0.000000 -32.862282
LeftUpLeg -4.955113 -4.961854 47.463393
LeftLeg 21.050125 -0.000000 -0.000000
LeftFoot -18.401633 33.901424 -14.955140
LeftToeBase -10.405103 -0.000000 0.000000
RightUpLeg -138.513561 -54.245526 26.253406
RightLeg -13.138645 -0.000000 0.000000
RightFoot 36.864300 -24.261485 17.342111
RightToeBase 23.102617 -0.000000 -0.000000
1370
root 4.953158 34.373260 -3.532829 26.540780 -23.263865 -56.203505
Spine -3.172672 25.532774 34.785443
Head 8.367808 1.524454 21.651710
LeftShoulder -19.696535 20.965105 38.111084
LeftArm 103.800290 -78.811996 -75.987168
LeftForeArm 20.265290 -0.000000 27.839653
LeftHand 11.888043 0.000000 21.805588
LeftHandThumb1 -26.253704 0.000000 33.147579
RightShoulder -7.243840 35.509134 -30.282547
RightArm 60.342490 73.249691 96.818114
RightForeArm 38.920526 -0.000000 59.352858
RightHand 1.906766 -0.000000 28.248527
RightHandThumb1 -24.326973 -0.000000 -32.862282
LeftUpLeg -4.911169 -4.899308 47.413861
LeftLeg 21.143843 -0.000000 -0.000000
LeftFoot -18.616538 33.960799 -15.124770
LeftToeBase -10.428194 -0.000000 0.000000
RightUpLeg -138.577885 -54.226902 26.297874
RightLeg -13.194493 -0.000000 0.000000
RightFoot 36.853599 -24.320653 17.420177
RightToeBase 23.079685 -0.000000 -0.000000
1371
root 4.948878 34.361852 -3.514989 26.710471 -23.410255 -56.267652
Spine -3.211197 25.561500 34.777585
Head 8.395784 1.704833 21.880947
LeftShoulder -19.747366 21.002287 38.120157
LeftArm 105.164085 -78.769602 -77.330255
LeftForeArm 20.343902 0.000000 27.883467
LeftHand 11.907208 0.000000 21.685341
LeftHandThumb1 -26.253704 0.000000 33.147579
RightShoulder -7.317268 35.514601 -30.337922
RightArm 60.179444 73.167257 96.696852
RightForeArm 38.990746 -0.000000 59.399504
RightHand 1.841563 -0.000000 28.219464
RightHandThumb1 -24.326973 -0.000000 -32.862282
LeftUpLeg -4.879490 -4.829036 47.380607
LeftLeg 21.237526 -0.000000 -0.000000
LeftFoot -18.840485 33.921380 -15.387182
LeftToeBase -10.441541 -0.000000 0.000000
RightUpLeg -138.609036 -54.254710 26.307368
RightLeg -13.213483 -0.000000 0.000000
RightFoot 36.781460 -24.322992 17.489815
RightToeBase 23.083223 -0.000000 -0.000000
1372
root 4.946943 34.351238 -3.500452 26.883500 -23.549660 -56.336217
Spine -3.232423 25.588715 34.781893
Head 8.418408 1.868672 22.099686
LeftShoulder -19.802158 21.020201 38.110104
LeftArm 105.941272 -78.768279 -78.050351
LeftForeArm 20.375921 -0.000000 27.899472
LeftHand 11.948078 -0.000000 21.813002
LeftHandThumb1 -26.253704 0.000000 33.147579
RightShoulder -7.381072 35.526057 -30.387054
RightArm 60.117699 73.119531 96.663125
RightForeArm 38.952959 -0.000000 59.428594
RightHand 1.859740 -0.000000 28.059254
RightHandThumb1 -24.326973 -0.000000 -32.862282
LeftUpLeg -4.878416 -4.739189 47.357529
LeftLeg 21.367738 -0.000000 -0.000000
LeftFoot -19.074707 33.879333 -15.651429
LeftToeBase -10.351509 -0.000000 0.000000
RightUpLeg -138.651425 -54.234377 26.349304
RightLeg -13.236986 -0.000000 0.000000
RightFoot 36.777497 -24.308145 17.468445
RightToeBase 23.022892 -0.000000 -0.000000
1373
root 4.945659 34.341003 -3.489007 27.057219 -23.677728 -56.414815
Spine -3.229901 25.598989 34.805359
Head 8.387433 2.062076 22.287035
LeftShoulder -19.901227 21.041249 38.080465
LeftArm 106.610325 -78.755316 -78.662318
LeftForeArm 20.446868 -0.000000 27.921594
LeftHand 12.016617 -0.000000 21.891420
LeftHandThumb1 -26.253704 0.000000 33.147579
RightShoulder -7.416622 35.533113 -30.425479
RightArm 59.926481 73.083932 96.486798
RightForeArm 39.021465 -0.000000 59.425426
RightHand 1.869998 0.000000 28.059573
RightHandThumb1 -24.326973 -0.000000 -32.862282
LeftUpLeg -4.897525 -4.594622 47.360680
LeftLeg 21.513501 -0.000000 -0.000000
LeftFoot -19.272519 33.768655 -15.924315
LeftToeBase -10.523649 -0.000000 0.000000
RightUpLeg -138.637664 -54.258456 26.350147
RightLeg -13.251562 -0.000000 0.000000
RightFoot 36.737447 -24.358218 17.514029
RightToeBase 23.150279 -0.000000 -0.000000
1374
root 4.945036 34.332132 -3.479392 27.242793 -23.792132 -56.502761
Spine -3.245616 25.632505 34.832915
Head 8.395782 2.165571 22.468810
LeftShoulder -19.879741 20.966634 38.130245
LeftArm 106.133642 -78.849086 -78.216158
LeftForeArm 20.442837 -0.000000 28.068116
LeftHand 11.935089 -0.000000 21.891243
LeftHandThumb1 -26.253704 0.000000 33.147579
RightShoulder -7.419459 35.470593 -30.425898
RightArm 60.070226 73.097323 96.618181
RightForeArm 39.062377 -0.000000 59.405315
RightHand 1.960879 -0.000000 27.837982
RightHandThumb1 -24.326973 -0.000000 -32.862282
LeftUpLeg -4.929821 -4.391433 47.385056
LeftLeg 21.652442 -0.000000 -0.000000
LeftFoot -19.423589 33.668684 -16.093221
LeftToeBase -10.964644 -0.000000 0.000000
RightUpLeg -138.632696 -54.270351 26.380820
RightLeg -13.259849 -0.000000 0.000000
RightFoot 36.762233 -24.369379 17.535797
RightToeBase 23.034678 -0.000000 -0.000000
1375
root 4.944566 34.324127 -3.471790 27.414534 -23.919315 -56.582726
Spine -3.234733 25.648767 34.847344
Head 8.383061 2.310363 22.654702
LeftShoulder -19.907593 20.922982 38.141592
LeftArm 106.260244 -78.884109 -78.335884
LeftForeArm 20.472594 -0.000000 28.183966
LeftHand 12.032278 -0.000000 21.804747
LeftHandThumb1 -26.253704 0.000000 33.147579
RightShoulder -7.395733 35.456811 -30.395579
RightArm 60.170753 73.123607 96.703540
RightForeArm 39.087844 -0.000000 59.388893
RightHand 1.920485 -0.000000 28.024323
RightHandThumb1 -24.326973 -0.000000 -32.862282
LeftUpLeg -4.946249 -4.143455 47.395451
LeftLeg 21.773453 -0.000000 -0.000000
LeftFoot -19.502107 33.562164 -16.123299
LeftToeBase -10.688888 -0.000000 0.000000
RightUpLeg -138.570689 -54.252556 26.343978
RightLeg -13.254652 -0.000000 0.000000
RightFoot 36.830086 -24.399981 17.328054
RightToeBase 22.992601 -0.000000 -0.000000
1376
root 4.942892 34.316329 -3.462668 27.566630 -24.038346 -56.622634
Spine -3.250306 25.675161 34.810867
Head 8.372569 2.369065 22.855471
LeftShoulder -19.956000 20.937779 38.117548
LeftArm 106.938393 -78.861453 -78.929366
LeftForeArm 20.631396 -0.000000 28.208943
LeftHand 12.047245 -0.000000 21.872869
LeftHandThumb1 -26.253704 0.000000 33.147579
RightShoulder -7.398243 35.410104 -30.350148
RightArm 60.343355 73.153383 96.843444
RightForeArm 39.089293 -0.000000 59.330935
RightHand 1.888709 -0.000000 27.900878
RightHandThumb1 -24.326973 -0.000000 -32.862282
LeftUpLeg -4.958775 -3.903287 47.374583
LeftLeg 21.853524 -0.000000 -0.000000
LeftFoot -19.529040 33.487833 -16.076777
LeftToeBase -10.798827 -0.000000 0.000000
RightUpLeg -138.572159 -54.284242 26.333828
RightLeg -13.192293 -0.000000 0.000000
RightFoot 36.800408 -24.459426 17.511311
RightToeBase 22.927439 -0.000000 -0.000000
